<mxfile host="app.diagrams.net" modified="2024-05-03T07:58:44.925Z" agent="Mozilla/5.0 (Macintosh; Intel Mac OS X 10.15; rv:125.0) Gecko/20100101 Firefox/125.0" etag="Oip60ScZD_E0VdyXbrOK" version="24.0.7" type="github">
  <diagram id="jrXY4hO8n29qiqvIHeQG" name="Page-1">
    <mxGraphModel dx="2532" dy="2183" grid="1" gridSize="10" guides="1" tooltips="1" connect="1" arrows="1" fold="1" page="0" pageScale="1" pageWidth="827" pageHeight="1169" math="0" shadow="0">
      <root>
        <mxCell id="0" />
        <mxCell id="1" parent="0" />
        <mxCell id="5G6M97Ru5O6IGqaMy1Rf-22" value="AWS Cloud" style="points=[[0,0],[0.25,0],[0.5,0],[0.75,0],[1,0],[1,0.25],[1,0.5],[1,0.75],[1,1],[0.75,1],[0.5,1],[0.25,1],[0,1],[0,0.75],[0,0.5],[0,0.25]];outlineConnect=0;gradientColor=none;html=1;whiteSpace=wrap;fontSize=12;fontStyle=0;shape=mxgraph.aws4.group;grIcon=mxgraph.aws4.group_aws_cloud_alt;strokeColor=#232F3E;verticalAlign=top;align=left;spacingLeft=30;fontColor=#232F3E;dashed=0;fillColor=none;" parent="1" vertex="1">
          <mxGeometry x="-1020" y="-800" width="840" height="780" as="geometry" />
        </mxCell>
        <mxCell id="5G6M97Ru5O6IGqaMy1Rf-23" value="VPC" style="points=[[0,0],[0.25,0],[0.5,0],[0.75,0],[1,0],[1,0.25],[1,0.5],[1,0.75],[1,1],[0.75,1],[0.5,1],[0.25,1],[0,1],[0,0.75],[0,0.5],[0,0.25]];outlineConnect=0;gradientColor=none;html=1;whiteSpace=wrap;fontSize=12;fontStyle=0;shape=mxgraph.aws4.group;grIcon=mxgraph.aws4.group_vpc;strokeColor=#248814;fillColor=none;verticalAlign=top;align=left;spacingLeft=30;dashed=0;fontColor=#248814;" parent="1" vertex="1">
          <mxGeometry x="-1000" y="-720" width="800" height="680" as="geometry" />
        </mxCell>
        <mxCell id="5G6M97Ru5O6IGqaMy1Rf-31" value="Availability Zone 1" style="strokeColor=#147EBA;dashed=1;verticalAlign=top;fontStyle=0;fontColor=#147EBA;" parent="1" vertex="1">
          <mxGeometry x="-970" y="-690" width="340" height="630" as="geometry" />
        </mxCell>
        <mxCell id="5G6M97Ru5O6IGqaMy1Rf-32" value="Availability Zone 2" style="strokeColor=#147EBA;dashed=1;verticalAlign=top;fontStyle=0;fontColor=#147EBA;" parent="1" vertex="1">
          <mxGeometry x="-570" y="-690" width="340" height="630" as="geometry" />
        </mxCell>
        <mxCell id="5G6M97Ru5O6IGqaMy1Rf-24" value="Public DMZ1" style="points=[[0,0],[0.25,0],[0.5,0],[0.75,0],[1,0],[1,0.25],[1,0.5],[1,0.75],[1,1],[0.75,1],[0.5,1],[0.25,1],[0,1],[0,0.75],[0,0.5],[0,0.25]];outlineConnect=0;gradientColor=none;html=1;whiteSpace=wrap;fontSize=12;fontStyle=0;shape=mxgraph.aws4.group;grIcon=mxgraph.aws4.group_security_group;grStroke=0;strokeColor=#248814;fillColor=#E9F3E6;verticalAlign=top;align=left;spacingLeft=30;fontColor=#248814;dashed=0;" parent="1" vertex="1">
          <mxGeometry x="-960" y="-662" width="320" height="120" as="geometry" />
        </mxCell>
        <mxCell id="5G6M97Ru5O6IGqaMy1Rf-25" value="Public DMZ2" style="points=[[0,0],[0.25,0],[0.5,0],[0.75,0],[1,0],[1,0.25],[1,0.5],[1,0.75],[1,1],[0.75,1],[0.5,1],[0.25,1],[0,1],[0,0.75],[0,0.5],[0,0.25]];outlineConnect=0;gradientColor=none;html=1;whiteSpace=wrap;fontSize=12;fontStyle=0;shape=mxgraph.aws4.group;grIcon=mxgraph.aws4.group_security_group;grStroke=0;strokeColor=#248814;fillColor=#E9F3E6;verticalAlign=top;align=left;spacingLeft=30;fontColor=#248814;dashed=0;" parent="1" vertex="1">
          <mxGeometry x="-560" y="-662" width="320" height="120" as="geometry" />
        </mxCell>
        <mxCell id="5G6M97Ru5O6IGqaMy1Rf-26" value="Private Subnet 1" style="points=[[0,0],[0.25,0],[0.5,0],[0.75,0],[1,0],[1,0.25],[1,0.5],[1,0.75],[1,1],[0.75,1],[0.5,1],[0.25,1],[0,1],[0,0.75],[0,0.5],[0,0.25]];outlineConnect=0;gradientColor=none;html=1;whiteSpace=wrap;fontSize=12;fontStyle=0;shape=mxgraph.aws4.group;grIcon=mxgraph.aws4.group_security_group;grStroke=0;strokeColor=#147EBA;fillColor=#E6F2F8;verticalAlign=top;align=left;spacingLeft=30;fontColor=#147EBA;dashed=0;" parent="1" vertex="1">
          <mxGeometry x="-960" y="-520" width="320" height="450" as="geometry" />
        </mxCell>
        <mxCell id="5G6M97Ru5O6IGqaMy1Rf-27" value="Private Subnet 2" style="points=[[0,0],[0.25,0],[0.5,0],[0.75,0],[1,0],[1,0.25],[1,0.5],[1,0.75],[1,1],[0.75,1],[0.5,1],[0.25,1],[0,1],[0,0.75],[0,0.5],[0,0.25]];outlineConnect=0;gradientColor=none;html=1;whiteSpace=wrap;fontSize=12;fontStyle=0;shape=mxgraph.aws4.group;grIcon=mxgraph.aws4.group_security_group;grStroke=0;strokeColor=#147EBA;fillColor=#E6F2F8;verticalAlign=top;align=left;spacingLeft=30;fontColor=#147EBA;dashed=0;" parent="1" vertex="1">
          <mxGeometry x="-560" y="-520" width="320" height="450" as="geometry" />
        </mxCell>
        <mxCell id="5G6M97Ru5O6IGqaMy1Rf-28" value="Auto Scaling group" style="points=[[0,0],[0.25,0],[0.5,0],[0.75,0],[1,0],[1,0.25],[1,0.5],[1,0.75],[1,1],[0.75,1],[0.5,1],[0.25,1],[0,1],[0,0.75],[0,0.5],[0,0.25]];outlineConnect=0;gradientColor=none;html=1;whiteSpace=wrap;fontSize=12;fontStyle=0;shape=mxgraph.aws4.groupCenter;grIcon=mxgraph.aws4.group_auto_scaling_group;grStroke=1;strokeColor=#D86613;fillColor=none;verticalAlign=top;align=center;fontColor=#D86613;dashed=1;spacingTop=25;" parent="1" vertex="1">
          <mxGeometry x="-930" y="-440" width="250" height="130" as="geometry" />
        </mxCell>
        <mxCell id="5G6M97Ru5O6IGqaMy1Rf-30" value="Elastic&lt;br&gt;Load&lt;br&gt;Balancer" style="outlineConnect=0;strokeColor=#248814;dashed=0;verticalLabelPosition=bottom;verticalAlign=middle;align=center;html=1;fontSize=12;fontStyle=0;aspect=fixed;shape=mxgraph.aws4.resourceIcon;resIcon=mxgraph.aws4.elastic_load_balancing;fillColor=none;spacingLeft=2;fontColor=#248814;textDirection=ltr;" parent="1" vertex="1">
          <mxGeometry x="-624" y="-720" width="48" height="48" as="geometry" />
        </mxCell>
        <mxCell id="5G6M97Ru5O6IGqaMy1Rf-34" value="Confluence Cluster 1" style="outlineConnect=0;gradientColor=none;fillColor=#D05C17;strokeColor=none;dashed=0;verticalLabelPosition=bottom;verticalAlign=top;align=center;html=1;fontSize=12;fontStyle=0;aspect=fixed;pointerEvents=1;shape=mxgraph.aws4.ecs_service;fontColor=#D05C17;" parent="1" vertex="1">
          <mxGeometry x="-825.52" y="-386" width="41.03" height="50" as="geometry" />
        </mxCell>
        <mxCell id="5G6M97Ru5O6IGqaMy1Rf-35" value="Confluence Cluster 2" style="outlineConnect=0;gradientColor=none;fillColor=#D05C17;strokeColor=none;dashed=0;verticalLabelPosition=bottom;verticalAlign=top;align=center;html=1;fontSize=12;fontStyle=0;aspect=fixed;pointerEvents=1;shape=mxgraph.aws4.ecs_service;fontColor=#D05C17;" parent="1" vertex="1">
          <mxGeometry x="-420.52" y="-385" width="41.03" height="50" as="geometry" />
        </mxCell>
        <mxCell id="5G6M97Ru5O6IGqaMy1Rf-36" value="Internet Gateway" style="outlineConnect=0;fontColor=#232F3E;gradientColor=none;fillColor=#232F3E;strokeColor=none;dashed=0;verticalLabelPosition=bottom;verticalAlign=top;align=center;html=1;fontSize=12;fontStyle=0;aspect=fixed;pointerEvents=1;shape=mxgraph.aws4.internet_alt2;" parent="1" vertex="1">
          <mxGeometry x="-624" y="-800" width="48" height="48" as="geometry" />
        </mxCell>
        <mxCell id="5G6M97Ru5O6IGqaMy1Rf-37" value="Users" style="outlineConnect=0;fontColor=#232F3E;gradientColor=none;fillColor=#232F3E;strokeColor=none;dashed=0;verticalLabelPosition=bottom;verticalAlign=top;align=center;html=1;fontSize=12;fontStyle=0;aspect=fixed;pointerEvents=1;shape=mxgraph.aws4.users;" parent="1" vertex="1">
          <mxGeometry x="-620" y="-870" width="40" height="40" as="geometry" />
        </mxCell>
        <mxCell id="5G6M97Ru5O6IGqaMy1Rf-38" value="Elastic IP" style="outlineConnect=0;gradientColor=none;strokeColor=#248814;dashed=0;verticalLabelPosition=bottom;verticalAlign=middle;align=center;html=1;fontSize=12;fontStyle=0;aspect=fixed;pointerEvents=1;shape=mxgraph.aws4.elastic_ip_address;rotation=90;spacingLeft=30;fillColor=#248814;fontColor=#248814;horizontal=0;labelPosition=center;spacingTop=46;" parent="1" vertex="1">
          <mxGeometry x="-910.0000000000001" y="-610.14" width="38.49" height="16.29" as="geometry" />
        </mxCell>
        <mxCell id="5G6M97Ru5O6IGqaMy1Rf-45" value="Reverse Proxy" style="outlineConnect=0;gradientColor=none;strokeColor=#248814;dashed=0;verticalLabelPosition=bottom;verticalAlign=top;align=center;html=1;fontSize=12;fontStyle=0;aspect=fixed;shape=mxgraph.aws4.resourceIcon;resIcon=mxgraph.aws4.elastic_beanstalk;spacingLeft=86;fillColor=none;fontColor=#248814;horizontal=1;labelPosition=center;spacingBottom=-6;spacingTop=-20;" parent="1" vertex="1">
          <mxGeometry x="-784.49" y="-632.14" width="60" height="60" as="geometry" />
        </mxCell>
        <mxCell id="5G6M97Ru5O6IGqaMy1Rf-48" value="Elastic IP" style="outlineConnect=0;gradientColor=none;strokeColor=#248814;dashed=0;verticalLabelPosition=bottom;verticalAlign=middle;align=center;html=1;fontSize=12;fontStyle=0;aspect=fixed;pointerEvents=1;shape=mxgraph.aws4.elastic_ip_address;rotation=90;spacingLeft=30;fillColor=#248814;fontColor=#248814;horizontal=0;labelPosition=center;spacingTop=46;" parent="1" vertex="1">
          <mxGeometry x="-497.7600000000001" y="-610.29" width="38.49" height="16.29" as="geometry" />
        </mxCell>
        <mxCell id="5G6M97Ru5O6IGqaMy1Rf-49" value="Reverse Proxy" style="outlineConnect=0;gradientColor=none;strokeColor=#248814;dashed=0;verticalLabelPosition=bottom;verticalAlign=top;align=center;html=1;fontSize=12;fontStyle=0;aspect=fixed;shape=mxgraph.aws4.resourceIcon;resIcon=mxgraph.aws4.elastic_beanstalk;spacingLeft=86;fillColor=none;fontColor=#248814;horizontal=1;labelPosition=center;spacingBottom=-6;spacingTop=-19;" parent="1" vertex="1">
          <mxGeometry x="-379.49" y="-632.14" width="60" height="60" as="geometry" />
        </mxCell>
        <mxCell id="5G6M97Ru5O6IGqaMy1Rf-52" value="Primary" style="outlineConnect=0;gradientColor=none;dashed=0;verticalLabelPosition=bottom;verticalAlign=top;align=center;html=1;fontSize=12;fontStyle=0;aspect=fixed;shape=mxgraph.aws4.resourceIcon;resIcon=mxgraph.aws4.database;fillColor=none;strokeColor=#3334B9;fontColor=#3334B9;" parent="1" vertex="1">
          <mxGeometry x="-835" y="-220" width="60" height="60" as="geometry" />
        </mxCell>
        <mxCell id="5G6M97Ru5O6IGqaMy1Rf-55" value="Secondary" style="outlineConnect=0;gradientColor=none;dashed=0;verticalLabelPosition=bottom;verticalAlign=top;align=center;html=1;fontSize=12;fontStyle=0;aspect=fixed;shape=mxgraph.aws4.resourceIcon;resIcon=mxgraph.aws4.database;fillColor=none;strokeColor=#3334B9;fontColor=#3334B9;" parent="1" vertex="1">
          <mxGeometry x="-430" y="-220" width="60" height="60" as="geometry" />
        </mxCell>
        <mxCell id="5G6M97Ru5O6IGqaMy1Rf-42" value="Databases" style="fillColor=none;strokeColor=#5A6C86;dashed=1;verticalAlign=top;fontStyle=0;fontColor=#5A6C86;" parent="1" vertex="1">
          <mxGeometry x="-950" y="-260" width="700" height="170" as="geometry" />
        </mxCell>
        <mxCell id="5G6M97Ru5O6IGqaMy1Rf-33" value="Front End" style="fillColor=none;strokeColor=#5A6C86;dashed=1;verticalAlign=top;fontStyle=0;fontColor=#5A6C86;" parent="1" vertex="1">
          <mxGeometry x="-950" y="-460" width="700" height="170" as="geometry" />
        </mxCell>
        <mxCell id="5G6M97Ru5O6IGqaMy1Rf-29" value="Auto Scaling group" style="points=[[0,0],[0.25,0],[0.5,0],[0.75,0],[1,0],[1,0.25],[1,0.5],[1,0.75],[1,1],[0.75,1],[0.5,1],[0.25,1],[0,1],[0,0.75],[0,0.5],[0,0.25]];outlineConnect=0;gradientColor=none;html=1;whiteSpace=wrap;fontSize=12;fontStyle=0;shape=mxgraph.aws4.groupCenter;grIcon=mxgraph.aws4.group_auto_scaling_group;grStroke=1;strokeColor=#D86613;fillColor=none;verticalAlign=top;align=center;fontColor=#D86613;dashed=1;spacingTop=25;" parent="1" vertex="1">
          <mxGeometry x="-530" y="-440" width="250" height="130" as="geometry" />
        </mxCell>
      </root>
    </mxGraphModel>
  </diagram>
</mxfile>
